<svg xmlns="http://www.w3.org/2000/svg" viewBox="0 0 400 400" role="img" aria-label="Neural net hero placeholder">
  <defs>
    <radialGradient id="bg" cx="52%" cy="46%" r="72%">
      <stop offset="0%" stop-color="#1f3b3a"/>
      <stop offset="55%" stop-color="#101826"/>
      <stop offset="100%" stop-color="#0b1117"/>
    </radialGradient>
    <linearGradient id="edge" x1="0" x2="1">
      <stop offset="0%" stop-color="#7dd3fc" stop-opacity="0.18"/>
      <stop offset="55%" stop-color="#a78bfa" stop-opacity="0.32"/>
      <stop offset="100%" stop-color="#86efac" stop-opacity="0.2"/>
    </linearGradient>
    <filter id="glow" x="-40%" y="-40%" width="180%" height="180%">
      <feGaussianBlur stdDeviation="5" result="blur"/>
      <feMerge>
        <feMergeNode in="blur"/>
        <feMergeNode in="SourceGraphic"/>
      </feMerge>
    </filter>
  </defs>
  <rect width="400" height="400" rx="18" fill="url(#bg)"/>
  <g fill="none" stroke="url(#edge)" stroke-width="1.4">
    <path d="M94 88 C148 126 204 118 308 76"/>
    <path d="M92 136 C158 168 220 170 308 128"/>
    <path d="M92 192 C162 196 224 205 310 190"/>
    <path d="M92 250 C154 230 224 238 308 272"/>
    <path d="M94 308 C164 278 218 294 308 326"/>
    <path d="M98 88 C168 190 214 218 306 326"/>
    <path d="M96 308 C154 190 224 150 308 76"/>
  </g>
  <g filter="url(#glow)">
    <g fill="#7dd3fc">
      <circle cx="92" cy="88" r="7"/>
      <circle cx="92" cy="136" r="6"/>
      <circle cx="92" cy="192" r="7"/>
      <circle cx="92" cy="250" r="6"/>
      <circle cx="92" cy="308" r="7"/>
    </g>
    <g fill="#a78bfa">
      <circle cx="200" cy="104" r="8"/>
      <circle cx="200" cy="160" r="7"/>
      <circle cx="200" cy="216" r="8"/>
      <circle cx="200" cy="272" r="7"/>
    </g>
    <g fill="#86efac">
      <circle cx="308" cy="76" r="8"/>
      <circle cx="308" cy="128" r="7"/>
      <circle cx="308" cy="190" r="8"/>
      <circle cx="308" cy="272" r="7"/>
      <circle cx="308" cy="326" r="8"/>
    </g>
  </g>
  <text x="200" y="368" text-anchor="middle" fill="#cbd5e1"
        font-family="Geist, system-ui, sans-serif" font-size="22" font-weight="600">
    784 -> 100 -> 10
  </text>
</svg>
