<svg xmlns="http://www.w3.org/2000/svg" width="820" height="360" viewBox="0 0 820 360">
<text x="80" y="28" fill="#111827" font-family="Avenir Next, Avenir, Segoe UI, Helvetica, Arial, sans-serif" font-size="18" font-weight="600">Axpy scaling</text>
<line x1="80" y1="50.0" x2="790" y2="50.0" stroke="#e5e7eb" stroke-width="1" />
<text x="70" y="54.0" fill="#111827" text-anchor="end" font-size="11" font-family="Avenir Next, Avenir, Segoe UI, Helvetica, Arial, sans-serif">253.7k</text>
<line x1="80" y1="112.5" x2="790" y2="112.5" stroke="#e5e7eb" stroke-width="1" />
<text x="70" y="116.5" fill="#111827" text-anchor="end" font-size="11" font-family="Avenir Next, Avenir, Segoe UI, Helvetica, Arial, sans-serif">190.3k</text>
<line x1="80" y1="175.0" x2="790" y2="175.0" stroke="#e5e7eb" stroke-width="1" />
<text x="70" y="179.0" fill="#111827" text-anchor="end" font-size="11" font-family="Avenir Next, Avenir, Segoe UI, Helvetica, Arial, sans-serif">126.8k</text>
<line x1="80" y1="237.5" x2="790" y2="237.5" stroke="#e5e7eb" stroke-width="1" />
<text x="70" y="241.5" fill="#111827" text-anchor="end" font-size="11" font-family="Avenir Next, Avenir, Segoe UI, Helvetica, Arial, sans-serif">63.4k</text>
<line x1="80" y1="300.0" x2="790" y2="300.0" stroke="#e5e7eb" stroke-width="1" />
<text x="70" y="304.0" fill="#111827" text-anchor="end" font-size="11" font-family="Avenir Next, Avenir, Segoe UI, Helvetica, Arial, sans-serif">0</text>
<text x="80.0" y="322" fill="#111827" text-anchor="middle" font-size="11" font-family="Avenir Next, Avenir, Segoe UI, Helvetica, Arial, sans-serif">128</text>
<text x="316.7" y="322" fill="#111827" text-anchor="middle" font-size="11" font-family="Avenir Next, Avenir, Segoe UI, Helvetica, Arial, sans-serif">256</text>
<text x="553.3" y="322" fill="#111827" text-anchor="middle" font-size="11" font-family="Avenir Next, Avenir, Segoe UI, Helvetica, Arial, sans-serif">512</text>
<text x="790.0" y="322" fill="#111827" text-anchor="middle" font-size="11" font-family="Avenir Next, Avenir, Segoe UI, Helvetica, Arial, sans-serif">1024</text>
<polyline fill="none" stroke="#94a3b8" stroke-width="2.5" points="80.0,296.6 316.7,286.3 553.3,245.0 790.0,72.7" />
<circle cx="80.0" cy="296.6" r="4" fill="#94a3b8" />
<circle cx="316.7" cy="286.3" r="4" fill="#94a3b8" />
<circle cx="553.3" cy="245.0" r="4" fill="#94a3b8" />
<circle cx="790.0" cy="72.7" r="4" fill="#94a3b8" />
<polyline fill="none" stroke="#2563eb" stroke-width="2.5" points="80.0,296.6 316.7,286.3 553.3,245.4 790.0,74.1" />
<circle cx="80.0" cy="296.6" r="4" fill="#2563eb" />
<circle cx="316.7" cy="286.3" r="4" fill="#2563eb" />
<circle cx="553.3" cy="245.4" r="4" fill="#2563eb" />
<circle cx="790.0" cy="74.1" r="4" fill="#2563eb" />
<polyline fill="none" stroke="#f97316" stroke-width="2.5" points="80.0,276.4 316.7,274.0 553.3,264.7 790.0,186.8" />
<circle cx="80.0" cy="276.4" r="4" fill="#f97316" />
<circle cx="316.7" cy="274.0" r="4" fill="#f97316" />
<circle cx="553.3" cy="264.7" r="4" fill="#f97316" />
<circle cx="790.0" cy="186.8" r="4" fill="#f97316" />
<rect x="630" y="46" width="12" height="12" fill="#94a3b8" rx="2" />
<text x="648" y="56" fill="#111827" font-size="11" font-family="Avenir Next, Avenir, Segoe UI, Helvetica, Arial, sans-serif">baseline</text>
<rect x="630" y="64" width="12" height="12" fill="#2563eb" rx="2" />
<text x="648" y="74" fill="#111827" font-size="11" font-family="Avenir Next, Avenir, Segoe UI, Helvetica, Arial, sans-serif">native</text>
<rect x="630" y="82" width="12" height="12" fill="#f97316" rx="2" />
<text x="648" y="92" fill="#111827" font-size="11" font-family="Avenir Next, Avenir, Segoe UI, Helvetica, Arial, sans-serif">openmp+native</text>
<text x="80" y="342" fill="#111827" font-family="Avenir Next, Avenir, Segoe UI, Helvetica, Arial, sans-serif" font-size="12">Lower is better (ns/op)</text>
</svg>