<svg xmlns="http://www.w3.org/2000/svg" width="820" height="360" viewBox="0 0 820 360">
<text x="110" y="28" fill="#111827" font-family="Avenir Next, Avenir, Segoe UI, Helvetica, Arial, sans-serif" font-size="18" font-weight="600">Training/inference throughput</text>
<line x1="110" y1="50.0" x2="790" y2="50.0" stroke="#e5e7eb" stroke-width="1" />
<text x="100" y="54.0" fill="#111827" text-anchor="end" font-size="11" font-family="Avenir Next, Avenir, Segoe UI, Helvetica, Arial, sans-serif">89.8k</text>
<line x1="110" y1="112.5" x2="790" y2="112.5" stroke="#e5e7eb" stroke-width="1" />
<text x="100" y="116.5" fill="#111827" text-anchor="end" font-size="11" font-family="Avenir Next, Avenir, Segoe UI, Helvetica, Arial, sans-serif">67.3k</text>
<line x1="110" y1="175.0" x2="790" y2="175.0" stroke="#e5e7eb" stroke-width="1" />
<text x="100" y="179.0" fill="#111827" text-anchor="end" font-size="11" font-family="Avenir Next, Avenir, Segoe UI, Helvetica, Arial, sans-serif">44.9k</text>
<line x1="110" y1="237.5" x2="790" y2="237.5" stroke="#e5e7eb" stroke-width="1" />
<text x="100" y="241.5" fill="#111827" text-anchor="end" font-size="11" font-family="Avenir Next, Avenir, Segoe UI, Helvetica, Arial, sans-serif">22.4k</text>
<line x1="110" y1="300.0" x2="790" y2="300.0" stroke="#e5e7eb" stroke-width="1" />
<text x="100" y="304.0" fill="#111827" text-anchor="end" font-size="11" font-family="Avenir Next, Avenir, Segoe UI, Helvetica, Arial, sans-serif">0</text>
<rect x="161.0" y="164.3" width="79.3" height="135.7" fill="#94a3b8" rx="4" />
<rect x="240.3" y="162.5" width="79.3" height="137.5" fill="#2563eb" rx="4" />
<rect x="319.7" y="164.6" width="79.3" height="135.4" fill="#f97316" rx="4" />
<text x="280.0" y="322" fill="#111827" text-anchor="middle" font-size="11" font-family="Avenir Next, Avenir, Segoe UI, Helvetica, Arial, sans-serif">learn</text>
<rect x="501.0" y="72.7" width="79.3" height="227.3" fill="#94a3b8" rx="4" />
<rect x="580.3" y="75.3" width="79.3" height="224.7" fill="#2563eb" rx="4" />
<rect x="659.7" y="105.1" width="79.3" height="194.9" fill="#f97316" rx="4" />
<text x="620.0" y="322" fill="#111827" text-anchor="middle" font-size="11" font-family="Avenir Next, Avenir, Segoe UI, Helvetica, Arial, sans-serif">classify</text>
<rect x="630" y="46" width="12" height="12" fill="#94a3b8" rx="2" />
<text x="648" y="56" fill="#111827" font-size="11" font-family="Avenir Next, Avenir, Segoe UI, Helvetica, Arial, sans-serif">baseline</text>
<rect x="630" y="64" width="12" height="12" fill="#2563eb" rx="2" />
<text x="648" y="74" fill="#111827" font-size="11" font-family="Avenir Next, Avenir, Segoe UI, Helvetica, Arial, sans-serif">native</text>
<rect x="630" y="82" width="12" height="12" fill="#f97316" rx="2" />
<text x="648" y="92" fill="#111827" font-size="11" font-family="Avenir Next, Avenir, Segoe UI, Helvetica, Arial, sans-serif">openmp+native</text>
<text x="110" y="342" fill="#111827" font-family="Avenir Next, Avenir, Segoe UI, Helvetica, Arial, sans-serif" font-size="12">Higher is better (img/s)</text>
</svg>